<svg id="visual" viewBox="0 0 900 300" width="900" height="300" xmlns="http://www.w3.org/2000/svg" xmlns:xlink="http://www.w3.org/1999/xlink" version="1.1"><rect x="0" y="0" width="900" height="300" fill="#3d82d1"></rect><path d="M0 72L13.7 79C27.3 86 54.7 100 82 108.2C109.3 116.3 136.7 118.7 163.8 117.3C191 116 218 111 245.2 100.3C272.3 89.7 299.7 73.3 327 72C354.3 70.7 381.7 84.3 409 91.8C436.3 99.3 463.7 100.7 491 98.7C518.3 96.7 545.7 91.3 573 86.5C600.3 81.7 627.7 77.3 654.8 78.3C682 79.3 709 85.7 736.2 91.2C763.3 96.7 790.7 101.3 818 101.7C845.3 102 872.7 98 886.3 96L900 94L900 301L886.3 301C872.7 301 845.3 301 818 301C790.7 301 763.3 301 736.2 301C709 301 682 301 654.8 301C627.7 301 600.3 301 573 301C545.7 301 518.3 301 491 301C463.7 301 436.3 301 409 301C381.7 301 354.3 301 327 301C299.7 301 272.3 301 245.2 301C218 301 191 301 163.8 301C136.7 301 109.3 301 82 301C54.7 301 27.3 301 13.7 301L0 301Z" fill="#3d82d1"></path><path d="M0 81L13.7 82.3C27.3 83.7 54.7 86.3 82 88.3C109.3 90.3 136.7 91.7 163.8 99C191 106.3 218 119.7 245.2 124.8C272.3 130 299.7 127 327 119.3C354.3 111.7 381.7 99.3 409 100C436.3 100.7 463.7 114.3 491 117C518.3 119.7 545.7 111.3 573 106.8C600.3 102.3 627.7 101.7 654.8 100C682 98.3 709 95.7 736.2 95C763.3 94.3 790.7 95.7 818 104.3C845.3 113 872.7 129 886.3 137L900 145L900 301L886.3 301C872.7 301 845.3 301 818 301C790.7 301 763.3 301 736.2 301C709 301 682 301 654.8 301C627.7 301 600.3 301 573 301C545.7 301 518.3 301 491 301C463.7 301 436.3 301 409 301C381.7 301 354.3 301 327 301C299.7 301 272.3 301 245.2 301C218 301 191 301 163.8 301C136.7 301 109.3 301 82 301C54.7 301 27.3 301 13.7 301L0 301Z" fill="#3d6fb4"></path><path d="M0 144L13.7 146.7C27.3 149.3 54.7 154.7 82 152.8C109.3 151 136.7 142 163.8 143.7C191 145.3 218 157.7 245.2 161.3C272.3 165 299.7 160 327 154C354.3 148 381.7 141 409 139.3C436.3 137.7 463.7 141.3 491 144.8C518.3 148.3 545.7 151.7 573 149.7C600.3 147.7 627.7 140.3 654.8 140.7C682 141 709 149 736.2 147.5C763.3 146 790.7 135 818 129.5C845.3 124 872.7 124 886.3 124L900 124L900 301L886.3 301C872.7 301 845.3 301 818 301C790.7 301 763.3 301 736.2 301C709 301 682 301 654.8 301C627.7 301 600.3 301 573 301C545.7 301 518.3 301 491 301C463.7 301 436.3 301 409 301C381.7 301 354.3 301 327 301C299.7 301 272.3 301 245.2 301C218 301 191 301 163.8 301C136.7 301 109.3 301 82 301C54.7 301 27.3 301 13.7 301L0 301Z" fill="#3a5e98"></path><path d="M0 165L13.7 170.3C27.3 175.7 54.7 186.3 82 192C109.3 197.7 136.7 198.3 163.8 193.2C191 188 218 177 245.2 179.8C272.3 182.7 299.7 199.3 327 201.8C354.3 204.3 381.7 192.7 409 186C436.3 179.3 463.7 177.7 491 182.3C518.3 187 545.7 198 573 201.8C600.3 205.7 627.7 202.3 654.8 200.7C682 199 709 199 736.2 193.2C763.3 187.3 790.7 175.7 818 178.3C845.3 181 872.7 198 886.3 206.5L900 215L900 301L886.3 301C872.7 301 845.3 301 818 301C790.7 301 763.3 301 736.2 301C709 301 682 301 654.8 301C627.7 301 600.3 301 573 301C545.7 301 518.3 301 491 301C463.7 301 436.3 301 409 301C381.7 301 354.3 301 327 301C299.7 301 272.3 301 245.2 301C218 301 191 301 163.8 301C136.7 301 109.3 301 82 301C54.7 301 27.3 301 13.7 301L0 301Z" fill="#354d7d"></path><path d="M0 241L13.7 239.3C27.3 237.7 54.7 234.3 82 232.5C109.3 230.7 136.7 230.3 163.8 226.2C191 222 218 214 245.2 213.3C272.3 212.7 299.7 219.3 327 223.8C354.3 228.3 381.7 230.7 409 231.3C436.3 232 463.7 231 491 226.2C518.3 221.3 545.7 212.7 573 213.3C600.3 214 627.7 224 654.8 230.8C682 237.7 709 241.3 736.2 235.8C763.3 230.3 790.7 215.7 818 214.3C845.3 213 872.7 225 886.3 231L900 237L900 301L886.3 301C872.7 301 845.3 301 818 301C790.7 301 763.3 301 736.2 301C709 301 682 301 654.8 301C627.7 301 600.3 301 573 301C545.7 301 518.3 301 491 301C463.7 301 436.3 301 409 301C381.7 301 354.3 301 327 301C299.7 301 272.3 301 245.2 301C218 301 191 301 163.8 301C136.7 301 109.3 301 82 301C54.7 301 27.3 301 13.7 301L0 301Z" fill="#2e3c63"></path><path d="M0 250L13.7 250.5C27.3 251 54.7 252 82 256.5C109.3 261 136.7 269 163.8 271.7C191 274.3 218 271.7 245.2 268C272.3 264.3 299.7 259.7 327 255.8C354.3 252 381.7 249 409 251.2C436.3 253.3 463.7 260.7 491 265C518.3 269.3 545.7 270.7 573 267.2C600.3 263.7 627.7 255.3 654.8 256.3C682 257.3 709 267.7 736.2 272.3C763.3 277 790.7 276 818 269.3C845.3 262.7 872.7 250.3 886.3 244.2L900 238L900 301L886.3 301C872.7 301 845.3 301 818 301C790.7 301 763.3 301 736.2 301C709 301 682 301 654.8 301C627.7 301 600.3 301 573 301C545.7 301 518.3 301 491 301C463.7 301 436.3 301 409 301C381.7 301 354.3 301 327 301C299.7 301 272.3 301 245.2 301C218 301 191 301 163.8 301C136.7 301 109.3 301 82 301C54.7 301 27.3 301 13.7 301L0 301Z" fill="#252d4a"></path></svg>