<svg id="visual" viewBox="0 0 900 300" width="900" height="300" xmlns="http://www.w3.org/2000/svg" xmlns:xlink="http://www.w3.org/1999/xlink" version="1.1"><path d="M0 74L13.7 71.5C27.3 69 54.7 64 82 67.8C109.3 71.7 136.7 84.3 163.8 94C191 103.7 218 110.3 245.2 113.2C272.3 116 299.7 115 327 115.7C354.3 116.3 381.7 118.7 409 109.5C436.3 100.3 463.7 79.7 491 79.8C518.3 80 545.7 101 573 101.7C600.3 102.3 627.7 82.7 654.8 71.8C682 61 709 59 736.2 66.3C763.3 73.7 790.7 90.3 818 98.7C845.3 107 872.7 107 886.3 107L900 107L900 301L886.3 301C872.7 301 845.3 301 818 301C790.7 301 763.3 301 736.2 301C709 301 682 301 654.8 301C627.7 301 600.3 301 573 301C545.7 301 518.3 301 491 301C463.7 301 436.3 301 409 301C381.7 301 354.3 301 327 301C299.7 301 272.3 301 245.2 301C218 301 191 301 163.8 301C136.7 301 109.3 301 82 301C54.7 301 27.3 301 13.7 301L0 301Z" fill="#c867a4"></path><path d="M0 87L13.7 94C27.3 101 54.7 115 82 114.5C109.3 114 136.7 99 163.8 102.3C191 105.7 218 127.3 245.2 137.7C272.3 148 299.7 147 327 147.8C354.3 148.7 381.7 151.3 409 147.7C436.3 144 463.7 134 491 130.7C518.3 127.3 545.7 130.7 573 124.3C600.3 118 627.7 102 654.8 105.5C682 109 709 132 736.2 133.2C763.3 134.3 790.7 113.7 818 103.5C845.3 93.3 872.7 93.7 886.3 93.8L900 94L900 301L886.3 301C872.7 301 845.3 301 818 301C790.7 301 763.3 301 736.2 301C709 301 682 301 654.8 301C627.7 301 600.3 301 573 301C545.7 301 518.3 301 491 301C463.7 301 436.3 301 409 301C381.7 301 354.3 301 327 301C299.7 301 272.3 301 245.2 301C218 301 191 301 163.8 301C136.7 301 109.3 301 82 301C54.7 301 27.3 301 13.7 301L0 301Z" fill="#b86bb3"></path><path d="M0 171L13.7 170.5C27.3 170 54.7 169 82 163.8C109.3 158.7 136.7 149.3 163.8 144.5C191 139.7 218 139.3 245.2 136.7C272.3 134 299.7 129 327 127.5C354.3 126 381.7 128 409 131.7C436.3 135.3 463.7 140.7 491 139.2C518.3 137.7 545.7 129.3 573 130.5C600.3 131.7 627.7 142.3 654.8 151C682 159.7 709 166.3 736.2 169.5C763.3 172.7 790.7 172.3 818 166.2C845.3 160 872.7 148 886.3 142L900 136L900 301L886.3 301C872.7 301 845.3 301 818 301C790.7 301 763.3 301 736.2 301C709 301 682 301 654.8 301C627.7 301 600.3 301 573 301C545.7 301 518.3 301 491 301C463.7 301 436.3 301 409 301C381.7 301 354.3 301 327 301C299.7 301 272.3 301 245.2 301C218 301 191 301 163.8 301C136.7 301 109.3 301 82 301C54.7 301 27.3 301 13.7 301L0 301Z" fill="#a271c0"></path><path d="M0 186L13.7 185.7C27.3 185.3 54.7 184.7 82 186.2C109.3 187.7 136.7 191.3 163.8 194.2C191 197 218 199 245.2 194.2C272.3 189.3 299.7 177.7 327 172C354.3 166.3 381.7 166.7 409 173.8C436.3 181 463.7 195 491 200.7C518.3 206.3 545.7 203.7 573 204.5C600.3 205.3 627.7 209.7 654.8 211.8C682 214 709 214 736.2 205.8C763.3 197.7 790.7 181.3 818 175.2C845.3 169 872.7 173 886.3 175L900 177L900 301L886.3 301C872.7 301 845.3 301 818 301C790.7 301 763.3 301 736.2 301C709 301 682 301 654.8 301C627.7 301 600.3 301 573 301C545.7 301 518.3 301 491 301C463.7 301 436.3 301 409 301C381.7 301 354.3 301 327 301C299.7 301 272.3 301 245.2 301C218 301 191 301 163.8 301C136.7 301 109.3 301 82 301C54.7 301 27.3 301 13.7 301L0 301Z" fill="#8877c9"></path><path d="M0 196L13.7 204.3C27.3 212.7 54.7 229.3 82 231.7C109.3 234 136.7 222 163.8 214.8C191 207.7 218 205.3 245.2 208.5C272.3 211.7 299.7 220.3 327 219.3C354.3 218.3 381.7 207.7 409 204.3C436.3 201 463.7 205 491 206.3C518.3 207.7 545.7 206.3 573 207C600.3 207.7 627.7 210.3 654.8 209.5C682 208.7 709 204.3 736.2 209C763.3 213.7 790.7 227.3 818 226.8C845.3 226.3 872.7 211.7 886.3 204.3L900 197L900 301L886.3 301C872.7 301 845.3 301 818 301C790.7 301 763.3 301 736.2 301C709 301 682 301 654.8 301C627.7 301 600.3 301 573 301C545.7 301 518.3 301 491 301C463.7 301 436.3 301 409 301C381.7 301 354.3 301 327 301C299.7 301 272.3 301 245.2 301C218 301 191 301 163.8 301C136.7 301 109.3 301 82 301C54.7 301 27.3 301 13.7 301L0 301Z" fill="#687dcf"></path><path d="M0 276L13.7 273.2C27.3 270.3 54.7 264.7 82 264.7C109.3 264.7 136.7 270.3 163.8 270.2C191 270 218 264 245.2 257.3C272.3 250.7 299.7 243.3 327 241C354.3 238.7 381.7 241.3 409 242.7C436.3 244 463.7 244 491 245.5C518.3 247 545.7 250 573 250.7C600.3 251.3 627.7 249.7 654.8 247.5C682 245.3 709 242.7 736.2 247.5C763.3 252.3 790.7 264.7 818 264.2C845.3 263.7 872.7 250.3 886.3 243.7L900 237L900 301L886.3 301C872.7 301 845.3 301 818 301C790.7 301 763.3 301 736.2 301C709 301 682 301 654.8 301C627.7 301 600.3 301 573 301C545.7 301 518.3 301 491 301C463.7 301 436.3 301 409 301C381.7 301 354.3 301 327 301C299.7 301 272.3 301 245.2 301C218 301 191 301 163.8 301C136.7 301 109.3 301 82 301C54.7 301 27.3 301 13.7 301L0 301Z" fill="#3d82d1"></path></svg>