<svg id="visual" viewBox="0 0 900 100" width="900" height="100" xmlns="http://www.w3.org/2000/svg" xmlns:xlink="http://www.w3.org/1999/xlink" version="1.1"><path d="M0 69L11.5 65.8C23 62.7 46 56.3 69 58.5C92 60.7 115 71.3 138.2 76C161.3 80.7 184.7 79.3 207.8 79.2C231 79 254 80 277 76.3C300 72.7 323 64.3 346 62.8C369 61.3 392 66.7 415.2 66.7C438.3 66.7 461.7 61.3 484.8 63.2C508 65 531 74 554 78.7C577 83.3 600 83.7 623 82C646 80.3 669 76.7 692.2 73.2C715.3 69.7 738.7 66.3 761.8 68.5C785 70.7 808 78.3 831 77.7C854 77 877 68 888.5 63.5L900 59L900 0L888.5 0C877 0 854 0 831 0C808 0 785 0 761.8 0C738.7 0 715.3 0 692.2 0C669 0 646 0 623 0C600 0 577 0 554 0C531 0 508 0 484.8 0C461.7 0 438.3 0 415.2 0C392 0 369 0 346 0C323 0 300 0 277 0C254 0 231 0 207.8 0C184.7 0 161.3 0 138.2 0C115 0 92 0 69 0C46 0 23 0 11.5 0L0 0Z" fill="#3d82d1"></path><path d="M0 47L11.5 48C23 49 46 51 69 55C92 59 115 65 138.2 67C161.3 69 184.7 67 207.8 63.5C231 60 254 55 277 56.3C300 57.7 323 65.3 346 68.3C369 71.3 392 69.7 415.2 68.3C438.3 67 461.7 66 484.8 64.3C508 62.7 531 60.3 554 57.8C577 55.3 600 52.7 623 54C646 55.3 669 60.7 692.2 61.3C715.3 62 738.7 58 761.8 54.3C785 50.7 808 47.3 831 44.8C854 42.3 877 40.7 888.5 39.8L900 39L900 0L888.5 0C877 0 854 0 831 0C808 0 785 0 761.8 0C738.7 0 715.3 0 692.2 0C669 0 646 0 623 0C600 0 577 0 554 0C531 0 508 0 484.8 0C461.7 0 438.3 0 415.2 0C392 0 369 0 346 0C323 0 300 0 277 0C254 0 231 0 207.8 0C184.7 0 161.3 0 138.2 0C115 0 92 0 69 0C46 0 23 0 11.5 0L0 0Z" fill="#717cce"></path><path d="M0 37L11.5 36.7C23 36.3 46 35.7 69 38.8C92 42 115 49 138.2 48C161.3 47 184.7 38 207.8 38C231 38 254 47 277 50.2C300 53.3 323 50.7 346 49.2C369 47.7 392 47.3 415.2 48.7C438.3 50 461.7 53 484.8 50.2C508 47.3 531 38.7 554 38.7C577 38.7 600 47.3 623 48.2C646 49 669 42 692.2 37.7C715.3 33.3 738.7 31.7 761.8 31.5C785 31.3 808 32.7 831 32.2C854 31.7 877 29.3 888.5 28.2L900 27L900 0L888.5 0C877 0 854 0 831 0C808 0 785 0 761.8 0C738.7 0 715.3 0 692.2 0C669 0 646 0 623 0C600 0 577 0 554 0C531 0 508 0 484.8 0C461.7 0 438.3 0 415.2 0C392 0 369 0 346 0C323 0 300 0 277 0C254 0 231 0 207.8 0C184.7 0 161.3 0 138.2 0C115 0 92 0 69 0C46 0 23 0 11.5 0L0 0Z" fill="#9674c5"></path><path d="M0 24L11.5 26C23 28 46 32 69 31C92 30 115 24 138.2 21.3C161.3 18.7 184.7 19.3 207.8 19.8C231 20.3 254 20.7 277 21.5C300 22.3 323 23.7 346 24.2C369 24.7 392 24.3 415.2 25.8C438.3 27.3 461.7 30.7 484.8 33.5C508 36.3 531 38.7 554 35.8C577 33 600 25 623 24.5C646 24 669 31 692.2 35C715.3 39 738.7 40 761.8 40C785 40 808 39 831 36C854 33 877 28 888.5 25.5L900 23L900 0L888.5 0C877 0 854 0 831 0C808 0 785 0 761.8 0C738.7 0 715.3 0 692.2 0C669 0 646 0 623 0C600 0 577 0 554 0C531 0 508 0 484.8 0C461.7 0 438.3 0 415.2 0C392 0 369 0 346 0C323 0 300 0 277 0C254 0 231 0 207.8 0C184.7 0 161.3 0 138.2 0C115 0 92 0 69 0C46 0 23 0 11.5 0L0 0Z" fill="#b36db7"></path><path d="M0 24L11.5 24.5C23 25 46 26 69 25.8C92 25.7 115 24.3 138.2 24C161.3 23.7 184.7 24.3 207.8 24.7C231 25 254 25 277 23.7C300 22.3 323 19.7 346 19C369 18.3 392 19.7 415.2 20.8C438.3 22 461.7 23 484.8 22.2C508 21.3 531 18.7 554 17.7C577 16.7 600 17.3 623 15.7C646 14 669 10 692.2 8.3C715.3 6.7 738.7 7.3 761.8 9.3C785 11.3 808 14.7 831 15.3C854 16 877 14 888.5 13L900 12L900 0L888.5 0C877 0 854 0 831 0C808 0 785 0 761.8 0C738.7 0 715.3 0 692.2 0C669 0 646 0 623 0C600 0 577 0 554 0C531 0 508 0 484.8 0C461.7 0 438.3 0 415.2 0C392 0 369 0 346 0C323 0 300 0 277 0C254 0 231 0 207.8 0C184.7 0 161.3 0 138.2 0C115 0 92 0 69 0C46 0 23 0 11.5 0L0 0Z" fill="#c867a4"></path></svg>