<svg id="visual" viewBox="0 0 900 200" width="900" height="200" xmlns="http://www.w3.org/2000/svg" xmlns:xlink="http://www.w3.org/1999/xlink" version="1.1"><path d="M0 126L13.7 127.3C27.3 128.7 54.7 131.3 82 140.3C109.3 149.3 136.7 164.7 163.8 169C191 173.3 218 166.7 245.2 154.7C272.3 142.7 299.7 125.3 327 125.5C354.3 125.7 381.7 143.3 409 147.5C436.3 151.7 463.7 142.3 491 133.7C518.3 125 545.7 117 573 116.8C600.3 116.7 627.7 124.3 654.8 130.3C682 136.3 709 140.7 736.2 137.5C763.3 134.3 790.7 123.7 818 129.3C845.3 135 872.7 157 886.3 168L900 179L900 0L886.3 0C872.7 0 845.3 0 818 0C790.7 0 763.3 0 736.2 0C709 0 682 0 654.8 0C627.7 0 600.3 0 573 0C545.7 0 518.3 0 491 0C463.7 0 436.3 0 409 0C381.7 0 354.3 0 327 0C299.7 0 272.3 0 245.2 0C218 0 191 0 163.8 0C136.7 0 109.3 0 82 0C54.7 0 27.3 0 13.7 0L0 0Z" fill="#3d82d1"></path><path d="M0 121L13.7 115.2C27.3 109.3 54.7 97.7 82 99.8C109.3 102 136.7 118 163.8 128.3C191 138.7 218 143.3 245.2 138.8C272.3 134.3 299.7 120.7 327 110.2C354.3 99.7 381.7 92.3 409 98.7C436.3 105 463.7 125 491 131.5C518.3 138 545.7 131 573 121.5C600.3 112 627.7 100 654.8 101.7C682 103.3 709 118.7 736.2 127.7C763.3 136.7 790.7 139.3 818 140.8C845.3 142.3 872.7 142.7 886.3 142.8L900 143L900 0L886.3 0C872.7 0 845.3 0 818 0C790.7 0 763.3 0 736.2 0C709 0 682 0 654.8 0C627.7 0 600.3 0 573 0C545.7 0 518.3 0 491 0C463.7 0 436.3 0 409 0C381.7 0 354.3 0 327 0C299.7 0 272.3 0 245.2 0C218 0 191 0 163.8 0C136.7 0 109.3 0 82 0C54.7 0 27.3 0 13.7 0L0 0Z" fill="#687dcf"></path><path d="M0 113L13.7 114C27.3 115 54.7 117 82 113.2C109.3 109.3 136.7 99.7 163.8 90.7C191 81.7 218 73.3 245.2 79.3C272.3 85.3 299.7 105.7 327 110.2C354.3 114.7 381.7 103.3 409 95.5C436.3 87.7 463.7 83.3 491 85.3C518.3 87.3 545.7 95.7 573 102.8C600.3 110 627.7 116 654.8 110.2C682 104.3 709 86.7 736.2 80.2C763.3 73.7 790.7 78.3 818 83.2C845.3 88 872.7 93 886.3 95.5L900 98L900 0L886.3 0C872.7 0 845.3 0 818 0C790.7 0 763.3 0 736.2 0C709 0 682 0 654.8 0C627.7 0 600.3 0 573 0C545.7 0 518.3 0 491 0C463.7 0 436.3 0 409 0C381.7 0 354.3 0 327 0C299.7 0 272.3 0 245.2 0C218 0 191 0 163.8 0C136.7 0 109.3 0 82 0C54.7 0 27.3 0 13.7 0L0 0Z" fill="#8877c9"></path><path d="M0 97L13.7 91.5C27.3 86 54.7 75 82 67.3C109.3 59.7 136.7 55.3 163.8 59.2C191 63 218 75 245.2 82.8C272.3 90.7 299.7 94.3 327 93.2C354.3 92 381.7 86 409 86.5C436.3 87 463.7 94 491 92.8C518.3 91.7 545.7 82.3 573 75.5C600.3 68.7 627.7 64.3 654.8 68.2C682 72 709 84 736.2 90.7C763.3 97.3 790.7 98.7 818 99.3C845.3 100 872.7 100 886.3 100L900 100L900 0L886.3 0C872.7 0 845.3 0 818 0C790.7 0 763.3 0 736.2 0C709 0 682 0 654.8 0C627.7 0 600.3 0 573 0C545.7 0 518.3 0 491 0C463.7 0 436.3 0 409 0C381.7 0 354.3 0 327 0C299.7 0 272.3 0 245.2 0C218 0 191 0 163.8 0C136.7 0 109.3 0 82 0C54.7 0 27.3 0 13.7 0L0 0Z" fill="#a271c0"></path><path d="M0 48L13.7 47.5C27.3 47 54.7 46 82 46.5C109.3 47 136.7 49 163.8 49.2C191 49.3 218 47.7 245.2 46.5C272.3 45.3 299.7 44.7 327 47.2C354.3 49.7 381.7 55.3 409 60C436.3 64.7 463.7 68.3 491 68.8C518.3 69.3 545.7 66.7 573 61.8C600.3 57 627.7 50 654.8 48.5C682 47 709 51 736.2 50.3C763.3 49.7 790.7 44.3 818 45.8C845.3 47.3 872.7 55.7 886.3 59.8L900 64L900 0L886.3 0C872.7 0 845.3 0 818 0C790.7 0 763.3 0 736.2 0C709 0 682 0 654.8 0C627.7 0 600.3 0 573 0C545.7 0 518.3 0 491 0C463.7 0 436.3 0 409 0C381.7 0 354.3 0 327 0C299.7 0 272.3 0 245.2 0C218 0 191 0 163.8 0C136.7 0 109.3 0 82 0C54.7 0 27.3 0 13.7 0L0 0Z" fill="#b86bb3"></path><path d="M0 27L13.7 29.5C27.3 32 54.7 37 82 37C109.3 37 136.7 32 163.8 28.3C191 24.7 218 22.3 245.2 21C272.3 19.7 299.7 19.3 327 22.3C354.3 25.3 381.7 31.7 409 33.8C436.3 36 463.7 34 491 31.3C518.3 28.7 545.7 25.3 573 22.5C600.3 19.7 627.7 17.3 654.8 20.5C682 23.7 709 32.3 736.2 36.3C763.3 40.3 790.7 39.7 818 36.5C845.3 33.3 872.7 27.7 886.3 24.8L900 22L900 0L886.3 0C872.7 0 845.3 0 818 0C790.7 0 763.3 0 736.2 0C709 0 682 0 654.8 0C627.7 0 600.3 0 573 0C545.7 0 518.3 0 491 0C463.7 0 436.3 0 409 0C381.7 0 354.3 0 327 0C299.7 0 272.3 0 245.2 0C218 0 191 0 163.8 0C136.7 0 109.3 0 82 0C54.7 0 27.3 0 13.7 0L0 0Z" fill="#c867a4"></path></svg>