<svg id="visual" viewBox="0 0 900 450" width="900" height="450" xmlns="http://www.w3.org/2000/svg" xmlns:xlink="http://www.w3.org/1999/xlink" version="1.1"><path d="M0 259L21.5 268.3C43 277.7 86 296.3 128.8 304.2C171.7 312 214.3 309 257.2 300.3C300 291.7 343 277.3 385.8 270C428.7 262.7 471.3 262.3 514.2 268.2C557 274 600 286 642.8 302C685.7 318 728.3 338 771.2 335.5C814 333 857 308 878.5 295.5L900 283L900 0L878.5 0C857 0 814 0 771.2 0C728.3 0 685.7 0 642.8 0C600 0 557 0 514.2 0C471.3 0 428.7 0 385.8 0C343 0 300 0 257.2 0C214.3 0 171.7 0 128.8 0C86 0 43 0 21.5 0L0 0Z" fill="#3d82d1"></path><path d="M0 300L21.5 291C43 282 86 264 128.8 256.5C171.7 249 214.3 252 257.2 254C300 256 343 257 385.8 266C428.7 275 471.3 292 514.2 290.7C557 289.3 600 269.7 642.8 255.7C685.7 241.7 728.3 233.3 771.2 239.5C814 245.7 857 266.3 878.5 276.7L900 287L900 0L878.5 0C857 0 814 0 771.2 0C728.3 0 685.7 0 642.8 0C600 0 557 0 514.2 0C471.3 0 428.7 0 385.8 0C343 0 300 0 257.2 0C214.3 0 171.7 0 128.8 0C86 0 43 0 21.5 0L0 0Z" fill="#5e7ed0"></path><path d="M0 280L21.5 274.2C43 268.3 86 256.7 128.8 256.3C171.7 256 214.3 267 257.2 269C300 271 343 264 385.8 250.2C428.7 236.3 471.3 215.7 514.2 206.5C557 197.3 600 199.7 642.8 203.8C685.7 208 728.3 214 771.2 218C814 222 857 224 878.5 225L900 226L900 0L878.5 0C857 0 814 0 771.2 0C728.3 0 685.7 0 642.8 0C600 0 557 0 514.2 0C471.3 0 428.7 0 385.8 0C343 0 300 0 257.2 0C214.3 0 171.7 0 128.8 0C86 0 43 0 21.5 0L0 0Z" fill="#777bcd"></path><path d="M0 177L21.5 176C43 175 86 173 128.8 181C171.7 189 214.3 207 257.2 206C300 205 343 185 385.8 186C428.7 187 471.3 209 514.2 212.3C557 215.7 600 200.3 642.8 189.2C685.7 178 728.3 171 771.2 167.8C814 164.7 857 165.3 878.5 165.7L900 166L900 0L878.5 0C857 0 814 0 771.2 0C728.3 0 685.7 0 642.8 0C600 0 557 0 514.2 0C471.3 0 428.7 0 385.8 0C343 0 300 0 257.2 0C214.3 0 171.7 0 128.8 0C86 0 43 0 21.5 0L0 0Z" fill="#8c76c8"></path><path d="M0 128L21.5 132.7C43 137.3 86 146.7 128.8 147.2C171.7 147.7 214.3 139.3 257.2 135.7C300 132 343 133 385.8 141.8C428.7 150.7 471.3 167.3 514.2 168.5C557 169.7 600 155.3 642.8 154.8C685.7 154.3 728.3 167.7 771.2 172.2C814 176.7 857 172.3 878.5 170.2L900 168L900 0L878.5 0C857 0 814 0 771.2 0C728.3 0 685.7 0 642.8 0C600 0 557 0 514.2 0C471.3 0 428.7 0 385.8 0C343 0 300 0 257.2 0C214.3 0 171.7 0 128.8 0C86 0 43 0 21.5 0L0 0Z" fill="#9f72c1"></path><path d="M0 119L21.5 121.8C43 124.7 86 130.3 128.8 133.2C171.7 136 214.3 136 257.2 137.3C300 138.7 343 141.3 385.8 140.8C428.7 140.3 471.3 136.7 514.2 130C557 123.3 600 113.7 642.8 108.8C685.7 104 728.3 104 771.2 105C814 106 857 108 878.5 109L900 110L900 0L878.5 0C857 0 814 0 771.2 0C728.3 0 685.7 0 642.8 0C600 0 557 0 514.2 0C471.3 0 428.7 0 385.8 0C343 0 300 0 257.2 0C214.3 0 171.7 0 128.8 0C86 0 43 0 21.5 0L0 0Z" fill="#af6eb9"></path><path d="M0 109L21.5 105.5C43 102 86 95 128.8 93C171.7 91 214.3 94 257.2 97.5C300 101 343 105 385.8 100.5C428.7 96 471.3 83 514.2 80.7C557 78.3 600 86.7 642.8 88C685.7 89.3 728.3 83.7 771.2 81.7C814 79.7 857 81.3 878.5 82.2L900 83L900 0L878.5 0C857 0 814 0 771.2 0C728.3 0 685.7 0 642.8 0C600 0 557 0 514.2 0C471.3 0 428.7 0 385.8 0C343 0 300 0 257.2 0C214.3 0 171.7 0 128.8 0C86 0 43 0 21.5 0L0 0Z" fill="#bd6aaf"></path><path d="M0 38L21.5 40C43 42 86 46 128.8 47C171.7 48 214.3 46 257.2 45.8C300 45.7 343 47.3 385.8 46C428.7 44.7 471.3 40.3 514.2 38.2C557 36 600 36 642.8 35.7C685.7 35.3 728.3 34.7 771.2 37.5C814 40.3 857 46.7 878.5 49.8L900 53L900 0L878.5 0C857 0 814 0 771.2 0C728.3 0 685.7 0 642.8 0C600 0 557 0 514.2 0C471.3 0 428.7 0 385.8 0C343 0 300 0 257.2 0C214.3 0 171.7 0 128.8 0C86 0 43 0 21.5 0L0 0Z" fill="#c867a4"></path></svg>